<svg id="Icons" xmlns="http://www.w3.org/2000/svg" viewBox="0 0 64 64">
<path d="M58.35,35.94H51.76l-1.64,1.65v1L42.4,36l-.52-.09H22.12a4.94,4.94,0,0,0,0,9.88h2.29l-2.75,1.65H9.12a5.07,5.07,0,0,0-5,4.12,4.94,4.94,0,0,0,4.87,5.76H22.12L35.4,55.71H50.12v1.64L51.76,59h6.59L60,57.35V37.59ZM35.29,52.41,22,54.06H8.94a1.67,1.67,0,0,1-1.26-.58,1.69,1.69,0,0,1-.36-1.36,1.78,1.78,0,0,1,1.8-1.36h13l.84-.23,7.85-4.71h4.48V42.53H22.12a1.65,1.65,0,1,1,0-3.29h19.5l8.5,2.83V52.41Zm21.42,3.3h-3.3V39.24h3.3Z"/>
<path d="M32,32H8L6,30V8L8,6H32l2,2V30ZM10,28H30V10H10Z"/>
<rect x="8" y="14" width="24" height="4"/></svg>
